<svg xmlns="http://www.w3.org/2000/svg" viewBox="0 0 24 24" role="img" aria-label="Smallbizloanz">
  <rect width="24" height="24" rx="6" fill="#0EA5A2"/>
  <path d="M11 15h2a2 2 0 1 0 0-4h-3c-.6 0-1.1.2-1.4.6L3 17" stroke="#F8FBFD" stroke-width="1.5" stroke-linecap="round" stroke-linejoin="round" fill="none"/>
  <path d="m7 21 1.6-1.4c.3-.4.8-.6 1.4-.6h4c1.1 0 2.1-.4 2.8-1.2l4.6-4.4a2 2 0 0 0-2.75-2.91l-4.2 3.9" stroke="#F8FBFD" stroke-width="1.5" stroke-linecap="round" stroke-linejoin="round" fill="none"/>
  <path d="m2 16 6 6" stroke="#F8FBFD" stroke-width="1.5" stroke-linecap="round" stroke-linejoin="round" fill="none"/>
  <circle cx="16" cy="9" r="2.9" fill="none" stroke="#F8FBFD" stroke-width="1.5"/>
  <circle cx="6" cy="5" r="3" fill="none" stroke="#F8FBFD" stroke-width="1.5"/>
</svg>
