<svg xmlns="http://www.w3.org/2000/svg" viewBox="0 0 24 24" role="img" aria-label="Smallbizloanz">
  <rect width="24" height="24" rx="5" fill="#0EA5A2"/>
  <path d="M10 12h4" stroke="#F8FBFD" stroke-width="1.5" stroke-linecap="round"/>
  <path d="M10 8h4" stroke="#F8FBFD" stroke-width="1.5" stroke-linecap="round"/>
  <path d="M14 21v-3a2 2 0 0 0-4 0v3" stroke="#F8FBFD" stroke-width="1.5" stroke-linecap="round" stroke-linejoin="round" fill="none"/>
  <path d="M6 10H4a2 2 0 0 0-2 2v7a2 2 0 0 0 2 2h16a2 2 0 0 0 2-2V9a2 2 0 0 0-2-2h-2" stroke="#F8FBFD" stroke-width="1.5" stroke-linecap="round" stroke-linejoin="round" fill="none"/>
  <path d="M6 21V5a2 2 0 0 1 2-2h8a2 2 0 0 1 2 2v16" stroke="#F8FBFD" stroke-width="1.5" stroke-linecap="round" stroke-linejoin="round" fill="none"/>
</svg>
